<?xml version="1.0" encoding="UTF-8" standalone="no"?>
<!-- Created with Inkscape (http://www.inkscape.org/) -->

<svg
   xmlns:dc="http://purl.org/dc/elements/1.1/"
   xmlns:cc="http://creativecommons.org/ns#"
   xmlns:rdf="http://www.w3.org/1999/02/22-rdf-syntax-ns#"
   xmlns:svg="http://www.w3.org/2000/svg"
   xmlns="http://www.w3.org/2000/svg"
   xmlns:sodipodi="http://sodipodi.sourceforge.net/DTD/sodipodi-0.dtd"
   xmlns:inkscape="http://www.inkscape.org/namespaces/inkscape"
   width="179"
   height="48.240829"
   id="svg6513"
   version="1.1"
   inkscape:version="0.48.4 r9939"
   sodipodi:docname="logo.svg">
  <defs
     id="defs6515" />
  <sodipodi:namedview
     id="base"
     pagecolor="#ffffff"
     bordercolor="#666666"
     borderopacity="1.0"
     inkscape:pageopacity="0.0"
     inkscape:pageshadow="2"
     inkscape:zoom="1.979899"
     inkscape:cx="87.409644"
     inkscape:cy="-33.389984"
     inkscape:document-units="px"
     inkscape:current-layer="layer1"
     showgrid="false"
     fit-margin-top="0"
     fit-margin-left="0"
     fit-margin-right="0"
     fit-margin-bottom="0"
     inkscape:window-width="1280"
     inkscape:window-height="745"
     inkscape:window-x="-3"
     inkscape:window-y="-3"
     inkscape:window-maximized="1" />
  <metadata
     id="metadata6518">
    <rdf:RDF>
      <cc:Work
         rdf:about="">
        <dc:format>image/svg+xml</dc:format>
        <dc:type
           rdf:resource="http://purl.org/dc/dcmitype/StillImage" />
      </cc:Work>
    </rdf:RDF>
  </metadata>
  <g
     inkscape:label="Layer 1"
     inkscape:groupmode="layer"
     id="layer1"
     transform="translate(-203.84375,-410.10478)">
    <path
       sodipodi:nodetypes="cc"
       inkscape:connector-curvature="0"
       id="path4048"
       d="m 269.85661,435.33195 95.3572,0"
       style="fill:none;stroke:#990000;stroke-width:4;stroke-linecap:round;stroke-linejoin:miter;stroke-miterlimit:4;stroke-opacity:1;stroke-dasharray:none" />
    <path
       sodipodi:nodetypes="cccc"
       inkscape:connector-curvature="0"
       id="path4050"
       d="m 270.08621,439.2995 31.0714,0 c 12.6672,0 14.1036,11.61675 30.8189,11.61675 10.7143,0 16.0714,-3.21429 28.2143,-3.21429"
       style="fill:none;stroke:#339966;stroke-width:4;stroke-linecap:round;stroke-linejoin:miter;stroke-miterlimit:4;stroke-opacity:1;stroke-dasharray:none" />
    <path
       style="fill:none;stroke:#339966;stroke-width:4;stroke-linecap:round;stroke-linejoin:miter;stroke-miterlimit:4;stroke-opacity:1;stroke-dasharray:none"
       d="m 269.87701,431.91625 31.0714,0 c 12.6672,0 14.6087,-6.56599 31.3239,-6.56599 l 31.0715,0"
       id="path4052"
       inkscape:connector-curvature="0"
       sodipodi:nodetypes="cccc" />
    <path
       sodipodi:nodetypes="cccc"
       inkscape:connector-curvature="0"
       id="path4054"
       d="m 269.87701,427.91625 31.0714,0 c 12.6672,0 14.6087,-11.86929 31.3239,-11.86929 l 26.4286,0"
       style="fill:none;stroke:#006698;stroke-width:4;stroke-linecap:round;stroke-linejoin:miter;stroke-miterlimit:4;stroke-opacity:1;stroke-dasharray:none" />
    <path
       style="fill:#b1b1b1;fill-opacity:1;stroke:#4e4e4e;stroke-width:2.18700004;stroke-miterlimit:4;stroke-opacity:1;stroke-dasharray:none"
       d="m 291.60611,433.94372 c 0,27.17834 -5.9961,20.89488 -31.6734,17.27513 -4.6347,-0.98067 -11.7015,-4.25025 -15.4641,-7.0765 -1.49,2.98213 0.5506,22.80569 -37.2364,-10.24591 36.609,-36.24793 35.6224,-13.2683 37.0798,-9.87347 3.7301,-2.6661 11.0621,-6.48859 15.7184,-7.26305 26.8939,-4.1912 31.5732,-8.94123 31.5757,17.1838 z"
       id="path4056"
       inkscape:connector-curvature="0"
       sodipodi:nodetypes="scccccs" />
    <path
       style="fill:#848484;fill-opacity:1;stroke:none"
       d="m 291.60611,433.94372 c 0,27.17834 -5.9961,20.89488 -31.6734,17.27513 -4.6347,-0.98067 -11.7015,-4.25025 -15.4641,-7.0765 -1.49,2.98213 0.5506,22.80569 -37.2364,-10.24591 z"
       id="path4108"
       inkscape:connector-curvature="0"
       sodipodi:nodetypes="ccccc" />
    <path
       sodipodi:type="arc"
       style="fill:#696969;fill-opacity:1;stroke:none"
       id="path4080"
       sodipodi:cx="1142.7351"
       sodipodi:cy="562.18567"
       sodipodi:rx="3.7880721"
       sodipodi:ry="3.7880721"
       d="m 1146.5232,562.18567 a 3.7880721,3.7880721 0 1 1 -7.5762,0 3.7880721,3.7880721 0 1 1 7.5762,0 z"
       transform="matrix(1.6333334,0,0,1.6333334,-1635.8171,-496.27848)" />
    <path
       transform="matrix(1.2333334,0,0,1.2333334,-1157.7624,-250.19102)"
       d="m 1146.5232,562.18567 a 3.7880721,3.7880721 0 1 1 -7.5762,0 3.7880721,3.7880721 0 1 1 7.5762,0 z"
       sodipodi:ry="3.7880721"
       sodipodi:rx="3.7880721"
       sodipodi:cy="562.18567"
       sodipodi:cx="1142.7351"
       id="path4082"
       style="fill:#696969;fill-opacity:1;stroke:none"
       sodipodi:type="arc" />
    <path
       sodipodi:type="arc"
       style="fill:#696969;fill-opacity:1;stroke:none"
       id="path4084"
       sodipodi:cx="1142.7351"
       sodipodi:cy="562.18567"
       sodipodi:rx="3.7880721"
       sodipodi:ry="3.7880721"
       d="m 1146.5232,562.18567 a 3.7880721,3.7880721 0 1 1 -7.5762,0 3.7880721,3.7880721 0 1 1 7.5762,0 z"
       transform="matrix(1.2333334,0,0,1.2333334,-1127.4578,-257.76716)" />
    <path
       transform="matrix(1.2333334,0,0,1.2333334,-1141.0949,-263.57554)"
       d="m 1146.5232,562.18567 a 3.7880721,3.7880721 0 1 1 -7.5762,0 3.7880721,3.7880721 0 1 1 7.5762,0 z"
       sodipodi:ry="3.7880721"
       sodipodi:rx="3.7880721"
       sodipodi:cy="562.18567"
       sodipodi:cx="1142.7351"
       id="path4086"
       style="fill:#696969;fill-opacity:1;stroke:none"
       sodipodi:type="arc" />
    <path
       sodipodi:type="arc"
       style="fill:#696969;fill-opacity:1;stroke:none"
       id="path4088"
       sodipodi:cx="1142.7351"
       sodipodi:cy="562.18567"
       sodipodi:rx="3.7880721"
       sodipodi:ry="3.7880721"
       d="m 1146.5232,562.18567 a 3.7880721,3.7880721 0 1 1 -7.5762,0 3.7880721,3.7880721 0 1 1 7.5762,0 z"
       transform="matrix(1.2333334,0,0,1.2333334,-1177.4604,-246.15041)" />
    <path
       transform="matrix(1.2333334,0,0,1.2333334,-1159.5302,-267.11108)"
       d="m 1146.5232,562.18567 a 3.7880721,3.7880721 0 1 1 -7.5762,0 3.7880721,3.7880721 0 1 1 7.5762,0 z"
       sodipodi:ry="3.7880721"
       sodipodi:rx="3.7880721"
       sodipodi:cy="562.18567"
       sodipodi:cx="1142.7351"
       id="path4090"
       style="fill:#696969;fill-opacity:1;stroke:none"
       sodipodi:type="arc" />
    <path
       sodipodi:type="arc"
       style="fill:#696969;fill-opacity:1;stroke:none"
       id="path4092"
       sodipodi:cx="1142.7351"
       sodipodi:cy="562.18567"
       sodipodi:rx="3.7880721"
       sodipodi:ry="3.7880721"
       d="m 1146.5232,562.18567 a 3.7880721,3.7880721 0 1 1 -7.5762,0 3.7880721,3.7880721 0 1 1 7.5762,0 z"
       transform="matrix(1.2333334,0,0,1.2333334,-1194.1279,-261.3027)" />
    <path
       transform="matrix(1.6333334,0,0,1.6333334,-1628.4935,-483.90411)"
       d="m 1146.5232,562.18567 a 3.7880721,3.7880721 0 1 1 -7.5762,0 3.7880721,3.7880721 0 1 1 7.5762,0 z"
       sodipodi:ry="3.7880721"
       sodipodi:rx="3.7880721"
       sodipodi:cy="562.18567"
       sodipodi:cx="1142.7351"
       id="path4094"
       style="fill:#696969;fill-opacity:1;stroke:none"
       sodipodi:type="arc" />
    <path
       sodipodi:type="arc"
       style="fill:#696969;fill-opacity:1;stroke:none"
       id="path4096"
       sodipodi:cx="1142.7351"
       sodipodi:cy="562.18567"
       sodipodi:rx="3.7880721"
       sodipodi:ry="3.7880721"
       d="m 1146.5232,562.18567 a 3.7880721,3.7880721 0 1 1 -7.5762,0 3.7880721,3.7880721 0 1 1 7.5762,0 z"
       transform="matrix(0.76666674,0,0,0.76666674,-615.39458,7.1115175)" />
    <path
       transform="matrix(0.76666674,0,0,0.76666674,-589.32315,-3.6027725)"
       d="m 1146.5232,562.18567 a 3.7880721,3.7880721 0 1 1 -7.5762,0 3.7880721,3.7880721 0 1 1 7.5762,0 z"
       sodipodi:ry="3.7880721"
       sodipodi:rx="3.7880721"
       sodipodi:cy="562.18567"
       sodipodi:cx="1142.7351"
       id="path4098"
       style="fill:#696969;fill-opacity:1;stroke:none"
       sodipodi:type="arc" />
    <path
       sodipodi:type="arc"
       style="fill:#696969;fill-opacity:1;stroke:none"
       id="path4100"
       sodipodi:cx="1142.7351"
       sodipodi:cy="562.18567"
       sodipodi:rx="3.7880721"
       sodipodi:ry="3.7880721"
       d="m 1146.5232,562.18567 a 3.7880721,3.7880721 0 1 1 -7.5762,0 3.7880721,3.7880721 0 1 1 7.5762,0 z"
       transform="matrix(0.76666674,0,0,0.76666674,-617.53744,-7.5313425)" />
    <path
       transform="matrix(0.76666674,0,0,0.76666674,-652.1803,7.8257975)"
       d="m 1146.5232,562.18567 a 3.7880721,3.7880721 0 1 1 -7.5762,0 3.7880721,3.7880721 0 1 1 7.5762,0 z"
       sodipodi:ry="3.7880721"
       sodipodi:rx="3.7880721"
       sodipodi:cy="562.18567"
       sodipodi:cx="1142.7351"
       id="path4102"
       style="fill:#696969;fill-opacity:1;stroke:none"
       sodipodi:type="arc" />
    <path
       sodipodi:type="arc"
       style="fill:#696969;fill-opacity:1;stroke:none"
       id="path4104"
       sodipodi:cx="1142.7351"
       sodipodi:cy="562.18567"
       sodipodi:rx="3.7880721"
       sodipodi:ry="3.7880721"
       d="m 1146.5232,562.18567 a 3.7880721,3.7880721 0 1 1 -7.5762,0 3.7880721,3.7880721 0 1 1 7.5762,0 z"
       transform="matrix(0.76666674,0,0,0.76666674,-636.10887,-9.3170625)" />
    <path
       sodipodi:nodetypes="scccccs"
       inkscape:connector-curvature="0"
       id="path4106"
       d="m 291.60611,433.94372 c 0,27.17834 -5.9961,20.89488 -31.6734,17.27513 -4.6347,-0.98067 -11.7015,-4.25025 -15.4641,-7.0765 -1.49,2.98213 0.5506,22.80569 -37.2364,-10.24591 36.609,-36.24793 35.6224,-13.2683 37.0798,-9.87347 3.7301,-2.6661 11.0621,-6.48859 15.7184,-7.26305 26.8939,-4.1912 31.5732,-8.94123 31.5757,17.1838 z"
       style="fill:none;stroke:#4e4e4e;stroke-width:2.18700004;stroke-miterlimit:4;stroke-opacity:1;stroke-dasharray:none" />
    <g
       id="g4060"
       transform="matrix(1.3579091,0,0,0.76083735,-1426.7345,145.17829)">
      <path
         transform="matrix(2.2447829,-1.635561,0.85463238,1.1729701,33.778702,1116.3637)"
         d="m 510.89287,94.237183 c 0,3.895579 -1.59898,7.053567 -3.57143,7.053567 -1.97244,0 -3.57143,-3.157988 -3.57143,-7.053567 0,-3.89558 1.59899,-7.053572 3.57143,-7.053572 1.97245,0 3.57143,3.157992 3.57143,7.053572 z"
         sodipodi:ry="7.0535712"
         sodipodi:rx="3.5714285"
         sodipodi:cy="94.237183"
         sodipodi:cx="507.32144"
         id="path4062"
         style="fill:#ffffff;fill-opacity:1;stroke:#4e4e4e;stroke-width:0.98382699;stroke-opacity:1"
         sodipodi:type="arc" />
      <path
         sodipodi:type="arc"
         style="fill:#006698;fill-opacity:1;stroke:none"
         id="path4064"
         sodipodi:cx="507.32144"
         sodipodi:cy="94.237183"
         sodipodi:rx="3.5714285"
         sodipodi:ry="7.0535712"
         d="m 510.89287,94.237183 c 0,3.895579 -1.59898,7.053567 -3.57143,7.053567 -1.97244,0 -3.57143,-3.157988 -3.57143,-7.053567 0,-3.89558 1.59899,-7.053572 3.57143,-7.053572 1.97245,0 3.57143,3.157992 3.57143,7.053572 z"
         transform="matrix(1.80026,-1.3116792,0.68539397,0.94069294,275.74221,974.01907)" />
      <path
         transform="matrix(1.2856187,-0.93670868,0.48945996,0.67177645,555.79406,809.20875)"
         d="m 510.89287,94.237183 c 0,3.895579 -1.59898,7.053567 -3.57143,7.053567 -1.97244,0 -3.57143,-3.157988 -3.57143,-7.053567 0,-3.89558 1.59899,-7.053572 3.57143,-7.053572 1.97245,0 3.57143,3.157992 3.57143,7.053572 z"
         sodipodi:ry="7.0535712"
         sodipodi:rx="3.5714285"
         sodipodi:cy="94.237183"
         sodipodi:cx="507.32144"
         id="path4066"
         style="fill:#339966;fill-opacity:1;stroke:none"
         sodipodi:type="arc" />
      <path
         sodipodi:type="arc"
         style="fill:#000000;fill-opacity:1;stroke:none"
         id="path4068"
         sodipodi:cx="507.32144"
         sodipodi:cy="94.237183"
         sodipodi:rx="3.5714285"
         sodipodi:ry="7.0535712"
         d="m 510.89287,94.237183 c 0,3.895579 -1.59898,7.053567 -3.57143,7.053567 -1.97244,0 -3.57143,-3.157988 -3.57143,-7.053567 0,-3.89558 1.59899,-7.053572 3.57143,-7.053572 1.97245,0 3.57143,3.157992 3.57143,7.053572 z"
         transform="matrix(0.9360762,-0.68203019,0.35638237,0.48912945,745.6653,697.21702)" />
    </g>
    <g
       id="g4070"
       transform="matrix(1.3579091,0,0,-0.76083735,-1426.7345,722.01546)">
      <path
         sodipodi:type="arc"
         style="fill:#ffffff;fill-opacity:1;stroke:#4e4e4e;stroke-width:0.98382699;stroke-opacity:1"
         id="path4072"
         sodipodi:cx="507.32144"
         sodipodi:cy="94.237183"
         sodipodi:rx="3.5714285"
         sodipodi:ry="7.0535712"
         d="m 510.89287,94.237183 c 0,3.895579 -1.59898,7.053567 -3.57143,7.053567 -1.97244,0 -3.57143,-3.157988 -3.57143,-7.053567 0,-3.89558 1.59899,-7.053572 3.57143,-7.053572 1.97245,0 3.57143,3.157992 3.57143,7.053572 z"
         transform="matrix(2.2447829,-1.635561,0.85463238,1.1729701,33.778702,1116.3637)" />
      <path
         transform="matrix(1.80026,-1.3116792,0.68539397,0.94069294,275.74221,974.01907)"
         d="m 510.89287,94.237183 c 0,3.895579 -1.59898,7.053567 -3.57143,7.053567 -1.97244,0 -3.57143,-3.157988 -3.57143,-7.053567 0,-3.89558 1.59899,-7.053572 3.57143,-7.053572 1.97245,0 3.57143,3.157992 3.57143,7.053572 z"
         sodipodi:ry="7.0535712"
         sodipodi:rx="3.5714285"
         sodipodi:cy="94.237183"
         sodipodi:cx="507.32144"
         id="path4074"
         style="fill:#006698;fill-opacity:1;stroke:none"
         sodipodi:type="arc" />
      <path
         sodipodi:type="arc"
         style="fill:#339966;fill-opacity:1;stroke:none"
         id="path4076"
         sodipodi:cx="507.32144"
         sodipodi:cy="94.237183"
         sodipodi:rx="3.5714285"
         sodipodi:ry="7.0535712"
         d="m 510.89287,94.237183 c 0,3.895579 -1.59898,7.053567 -3.57143,7.053567 -1.97244,0 -3.57143,-3.157988 -3.57143,-7.053567 0,-3.89558 1.59899,-7.053572 3.57143,-7.053572 1.97245,0 3.57143,3.157992 3.57143,7.053572 z"
         transform="matrix(1.2856187,-0.93670868,0.48945996,0.67177645,555.79406,809.20875)" />
      <path
         transform="matrix(0.9360762,-0.68203019,0.35638237,0.48912945,745.6653,697.21702)"
         d="m 510.89287,94.237183 c 0,3.895579 -1.59898,7.053567 -3.57143,7.053567 -1.97244,0 -3.57143,-3.157988 -3.57143,-7.053567 0,-3.89558 1.59899,-7.053572 3.57143,-7.053572 1.97245,0 3.57143,3.157992 3.57143,7.053572 z"
         sodipodi:ry="7.0535712"
         sodipodi:rx="3.5714285"
         sodipodi:cy="94.237183"
         sodipodi:cx="507.32144"
         id="path4078"
         style="fill:#000000;fill-opacity:1;stroke:none"
         sodipodi:type="arc" />
    </g>
  </g>
</svg>
